<?xml version="1.0" encoding="utf-8"?>
<!-- Generator: Adobe Illustrator 22.1.0, SVG Export Plug-In . SVG Version: 6.00 Build 0)  -->
<svg version="1.1" id="Layer_1" xmlns="http://www.w3.org/2000/svg" xmlns:xlink="http://www.w3.org/1999/xlink" x="0px" y="0px"
	 viewBox="0 0 288 143.1" style="enable-background:new 0 0 288 143.1;" xml:space="preserve">
<style type="text/css">
	.st0{fill:url(#SVGID_1_);}
	.st1{fill:#262626;}
	.st2{fill:url(#SVGID_2_);}
</style>
<g>
	<g>
		<linearGradient id="SVGID_1_" gradientUnits="userSpaceOnUse" x1="71.5621" y1="143.4249" x2="71.5621" y2="1.7996">
			<stop  offset="0" style="stop-color:#F77F4D"/>
			<stop  offset="1" style="stop-color:#ED5656"/>
		</linearGradient>
		<path class="st0" d="M127.4,71.6L140.9,58c1.4-1.4,2.2-3.3,2.2-5.4c0-2-0.8-3.9-2.2-5.4l-13.5-13.5c-3-3-7.8-3-10.7,0l-13.5,13.5
			L95.8,40l13.5-13.5c3-3,3-7.8,0-10.7L95.8,2.2c-3-3-7.8-3-10.7,0L71.6,15.8L58,2.2c-3-3-7.8-3-10.7,0L33.7,15.8
			c-1.4,1.4-2.2,3.3-2.2,5.4c0,2,0.8,3.9,2.2,5.4L47.3,40L40,47.3L26.5,33.7c-1.4-1.4-3.3-2.2-5.4-2.2c-2,0-3.9,0.8-5.4,2.2
			L2.2,47.3c-3,3-3,7.8,0,10.7l13.5,13.5l0,0l0,0L2.2,85.1C0.8,86.5,0,88.4,0,90.5s0.8,3.9,2.2,5.4l13.5,13.5
			c1.5,1.5,3.4,2.2,5.4,2.2s3.9-0.7,5.4-2.2L40,95.8l7.2,7.2l-13.5,13.5c-1.4,1.4-2.2,3.3-2.2,5.4c0,2,0.8,3.9,2.2,5.4l13.5,13.5
			c1.4,1.4,3.3,2.2,5.4,2.2c2,0,3.9-0.8,5.4-2.2l13.5-13.5l13.5,13.5c1.4,1.4,3.3,2.2,5.4,2.2c2,0,3.9-0.8,5.4-2.2l13.5-13.5l0,0
			c3-3,3-7.8,0-10.7l-13.5-13.5l7.2-7.2l13.5,13.5c1.5,1.5,3.4,2.2,5.4,2.2c1.9,0,3.9-0.7,5.4-2.2l13.5-13.5
			c1.4-1.4,2.2-3.3,2.2-5.4c0-2-0.8-3.9-2.2-5.4L127.4,71.6z M122,39.1l13.5,13.5L122,66.2l0,0l-18.9,18.9L89.5,71.6L122,39.1z
			 M90.5,7.6L104,21.1L90.5,34.7L76.9,21.1c0,0,0,0,0,0L90.5,7.6z M52.7,7.6l13.5,13.5l0,0L85.1,40L71.6,53.6L39.1,21.1L52.7,7.6z
			 M7.6,52.6l13.5-13.5l13.5,13.5L21.1,66.2L7.6,52.6z M21.1,104L7.6,90.5l13.5-13.5c0,0,0,0,0,0L40.1,58l13.5,13.5c0,0,0,0,0,0
			L21.1,104z M52.7,135.5L39.1,122l13.5-13.5L66.2,122L52.7,135.5z M104,122l-13.5,13.5L76.9,122c0,0,0,0,0,0L58,103.1l13.5-13.5
			L104,122C104,122,104,122,104,122z M90.5,97.7L76.9,84.2c-1.4-1.4-3.3-2.2-5.4-2.2c-2,0-3.9,0.8-5.4,2.2L52.6,97.7l-7.2-7.2
			L59,76.9c3-3,3-7.8,0-10.7L45.4,52.6l7.2-7.2L66.2,59c1.5,1.5,3.4,2.2,5.4,2.2c1.9,0,3.9-0.7,5.4-2.2l13.5-13.5l7.2,7.2L84.2,66.2
			c-3,3-3,7.8,0,10.7l13.5,13.5L90.5,97.7z M122,104l-13.5-13.5L122,76.9c0,0,0,0,0,0l13.5,13.5L122,104z"/>
	</g>
	<g>
		<path class="st1" d="M192.9,54.5v34.6h-6.8l-0.6-4.7c-4.9,3.7-9.7,5.6-14.5,5.6c-6.4,0-9.6-3.2-9.6-9.6V54.5h8.6v23.4
			c0,1.8,0.2,3.1,0.8,3.8c0.6,0.7,1.7,1.1,3.4,1.1c2.4,0,5.7-1.3,10.1-3.8V54.5H192.9z"/>
		<path class="st1" d="M204.1,54.5l0.6,5.1c5.4-4,10.4-6.1,15-6.1c3.1,0,5.4,0.8,7.1,2.5c1.6,1.6,2.5,4,2.5,7.1v26h-8.6V65.7
			c0-1.9-0.3-3.2-0.8-3.9c-0.5-0.7-1.5-1-2.9-1c-1.6,0-3.2,0.3-4.9,1c-1.7,0.7-3.8,1.7-6.5,3.2v24.1h-8.6V54.5H204.1z"/>
		<path class="st1" d="M235.4,39.4h4c1.6,0,2.5,0.8,2.5,2.5v3.9c0,1.6-0.8,2.5-2.5,2.5h-4c-1.6,0-2.5-0.8-2.5-2.5v-3.9
			C233,40.2,233.8,39.4,235.4,39.4z M241.7,89.1h-8.5V54.5h8.5V89.1z"/>
		<linearGradient id="SVGID_2_" gradientUnits="userSpaceOnUse" x1="266.0816" y1="90.149" x2="266.0816" y2="40.083">
			<stop  offset="0" style="stop-color:#F77F4D"/>
			<stop  offset="1" style="stop-color:#ED5656"/>
		</linearGradient>
		<path class="st2" d="M266,67L266,67c-0.4,0-0.8,0.2-1,0.6l-10.3,20.8c-0.2,0.4-0.6,0.6-1,0.6H247c-0.8,0-1.3-0.9-1-1.6l11.9-23
			c0.2-0.3,0.2-0.7,0-1l-11-21.6c-0.4-0.7,0.2-1.6,1-1.6h6.8c0.4,0,0.8,0.2,1,0.6l9.4,19.1c0.2,0.4,0.6,0.6,1,0.6h0.1
			c0.4,0,0.8-0.2,1-0.6l9.4-19.1c0.2-0.4,0.6-0.6,1-0.6h6.9c0.8,0,1.3,0.9,1,1.6l-11,21.6c-0.2,0.3-0.2,0.7,0,1l11.9,23
			c0.4,0.7-0.1,1.6-1,1.6h-6.9c-0.4,0-0.8-0.2-1-0.6L267,67.6C266.8,67.3,266.5,67,266,67z"/>
		<path class="st1" d="M239.4,102.7l-3.8-0.7c-1-0.2-1.7-0.5-2.1-1.1c-0.4-0.5-0.6-1.3-0.6-2.3c0-1.4,0.4-2.3,1.1-2.7
			c0.7-0.4,1.9-0.6,3.7-0.6c1.9,0,3.5,0.2,5,0.4l-0.2,1.2c-2-0.1-3.6-0.2-4.7-0.2c-1.4,0-2.3,0.1-2.7,0.3c-0.4,0.2-0.7,0.8-0.7,1.7
			c0,0.7,0.1,1.2,0.4,1.5s0.8,0.5,1.5,0.6l3.8,0.7c1,0.2,1.7,0.6,2.2,1.1c0.5,0.5,0.7,1.3,0.7,2.3c0,1.4-0.4,2.4-1.2,2.8
			c-0.8,0.4-2.1,0.7-4,0.7c-1.7,0-3.2-0.1-4.7-0.3l0.1-1.2c1.3,0.1,2.8,0.2,4.3,0.2c1.5,0,2.5-0.2,3-0.4c0.5-0.3,0.8-0.8,0.8-1.7
			c0-0.7-0.2-1.1-0.5-1.4C240.6,103,240.1,102.8,239.4,102.7z"/>
		<path class="st1" d="M250.4,106.6l0.2,1.2c-0.8,0.2-1.7,0.3-2.6,0.3c-2,0-3.1-1-3.1-3.1v-8.2h-2.2v-1.1l2.2-0.1v-3.7h1.6v3.7h4.2
			v1.3h-4.2v8c0,1.2,0.6,1.8,1.8,1.8H250.4z"/>
		<path class="st1" d="M261.1,95.6v12.3h-1.3l-0.1-1.9c-1.9,1.5-3.7,2.2-5.5,2.2c-2.2,0-3.3-1.1-3.3-3.4v-9.3h1.6v8.8
			c0,0.8,0.2,1.5,0.5,1.8c0.4,0.4,0.9,0.6,1.7,0.6c0.7,0,1.4-0.2,2.1-0.5c0.7-0.3,1.6-0.8,2.6-1.6v-9.2H261.1z"/>
		<path class="st1" d="M271.3,107.9l-0.2-1.9c-1.7,1.5-3.3,2.2-4.9,2.2c-1.6,0-2.7-0.5-3.4-1.6c-0.7-1-1-2.7-1-4.9
			c0-2.3,0.4-4,1.1-5c0.7-1,1.9-1.5,3.5-1.5c1.6,0,3.1,0.4,4.7,1.2c-0.1-0.6-0.1-1.4-0.1-2.4v-3.9h1.6v17.8H271.3z M270.9,104.8
			v-7.3c-1.7-0.6-3.2-0.9-4.2-0.9c-1.2,0-2,0.4-2.5,1.1c-0.5,0.7-0.7,2-0.7,3.9c0,1.9,0.2,3.2,0.7,4c0.5,0.7,1.3,1.1,2.5,1.1
			c0.7,0,1.3-0.1,2-0.4C269.2,106,270,105.5,270.9,104.8z"/>
		<path class="st1" d="M274.3,90.4h0.7c0.4,0,0.5,0.2,0.5,0.5v1.5c0,0.4-0.2,0.5-0.5,0.5h-0.7c-0.4,0-0.5-0.2-0.5-0.5v-1.5
			C273.8,90.6,274,90.4,274.3,90.4z M275.5,107.9h-1.6V95.6h1.6V107.9z"/>
		<path class="st1" d="M278,96.7c0.9-1,2.3-1.5,4.4-1.5s3.5,0.5,4.4,1.5s1.3,2.7,1.3,5c0,2.4-0.4,4-1.3,5c-0.8,1-2.3,1.5-4.4,1.5
			s-3.5-0.5-4.4-1.5c-0.9-1-1.3-2.6-1.3-5C276.7,99.4,277.1,97.7,278,96.7z M285.5,97.7c-0.6-0.7-1.6-1.1-3.1-1.1
			c-1.5,0-2.5,0.4-3.1,1.1c-0.6,0.7-0.9,2.1-0.9,4c0,1.9,0.3,3.3,0.9,4c0.6,0.7,1.6,1.1,3.1,1.1c1.5,0,2.5-0.4,3.1-1.1
			c0.6-0.7,0.9-2.1,0.9-4C286.3,99.8,286,98.5,285.5,97.7z"/>
	</g>
</g>
</svg>
