<?xml version="1.0" encoding="utf-8"?>
<!-- Generator: Adobe Illustrator 22.1.0, SVG Export Plug-In . SVG Version: 6.00 Build 0)  -->
<svg version="1.1" id="Layer_1" xmlns="http://www.w3.org/2000/svg" xmlns:xlink="http://www.w3.org/1999/xlink" x="0px" y="0px"
	 viewBox="0 0 143.1 143.1" style="enable-background:new 0 0 143.1 143.1;" xml:space="preserve">
<style type="text/css">
	.st0{fill:url(#SVGID_1_);}
</style>
<g>
	<linearGradient id="SVGID_1_" gradientUnits="userSpaceOnUse" x1="71.5621" y1="143.4249" x2="71.5621" y2="1.7996">
		<stop  offset="0" style="stop-color:#F77F4D"/>
		<stop  offset="1" style="stop-color:#ED5656"/>
	</linearGradient>
	<path class="st0" d="M127.4,71.6L140.9,58c1.4-1.4,2.2-3.3,2.2-5.4c0-2-0.8-3.9-2.2-5.4l-13.5-13.5c-3-3-7.8-3-10.7,0l-13.5,13.5
		L95.8,40l13.5-13.5c3-3,3-7.8,0-10.7L95.8,2.2c-3-3-7.8-3-10.7,0L71.6,15.8L58,2.2c-3-3-7.8-3-10.7,0L33.7,15.8
		c-1.4,1.4-2.2,3.3-2.2,5.4c0,2,0.8,3.9,2.2,5.4L47.3,40L40,47.3L26.5,33.7c-1.4-1.4-3.3-2.2-5.4-2.2c-2,0-3.9,0.8-5.4,2.2L2.2,47.3
		c-3,3-3,7.8,0,10.7l13.5,13.5l0,0l0,0L2.2,85.1C0.8,86.5,0,88.4,0,90.5s0.8,3.9,2.2,5.4l13.5,13.5c1.5,1.5,3.4,2.2,5.4,2.2
		s3.9-0.7,5.4-2.2L40,95.8l7.2,7.2l-13.5,13.5c-1.4,1.4-2.2,3.3-2.2,5.4c0,2,0.8,3.9,2.2,5.4l13.5,13.5c1.4,1.4,3.3,2.2,5.4,2.2
		c2,0,3.9-0.8,5.4-2.2l13.5-13.5l13.5,13.5c1.4,1.4,3.3,2.2,5.4,2.2c2,0,3.9-0.8,5.4-2.2l13.5-13.5l0,0c3-3,3-7.8,0-10.7l-13.5-13.5
		l7.2-7.2l13.5,13.5c1.5,1.5,3.4,2.2,5.4,2.2c1.9,0,3.9-0.7,5.4-2.2l13.5-13.5c1.4-1.4,2.2-3.3,2.2-5.4c0-2-0.8-3.9-2.2-5.4
		L127.4,71.6z M122,39.1l13.5,13.5L122,66.2l0,0l-18.9,18.9L89.5,71.6L122,39.1z M90.5,7.6L104,21.1L90.5,34.7L76.9,21.1
		c0,0,0,0,0,0L90.5,7.6z M52.7,7.6l13.5,13.5l0,0L85.1,40L71.6,53.6L39.1,21.1L52.7,7.6z M7.6,52.6l13.5-13.5l13.5,13.5L21.1,66.2
		L7.6,52.6z M21.1,104L7.6,90.5l13.5-13.5c0,0,0,0,0,0L40.1,58l13.5,13.5c0,0,0,0,0,0L21.1,104z M52.7,135.5L39.1,122l13.5-13.5
		L66.2,122L52.7,135.5z M104,122l-13.5,13.5L76.9,122c0,0,0,0,0,0L58,103.1l13.5-13.5L104,122C104,122,104,122,104,122z M90.5,97.7
		L76.9,84.2c-1.4-1.4-3.3-2.2-5.4-2.2c-2,0-3.9,0.8-5.4,2.2L52.6,97.7l-7.2-7.2L59,76.9c3-3,3-7.8,0-10.7L45.4,52.6l7.2-7.2L66.2,59
		c1.5,1.5,3.4,2.2,5.4,2.2c1.9,0,3.9-0.7,5.4-2.2l13.5-13.5l7.2,7.2L84.2,66.2c-3,3-3,7.8,0,10.7l13.5,13.5L90.5,97.7z M122,104
		l-13.5-13.5L122,76.9c0,0,0,0,0,0l13.5,13.5L122,104z"/>
</g>
</svg>
